
<svg style="display: none;" xmlns="http://www.w3.org/2000/svg" xmlns:xlink="http://www.w3.org/1999/xlink">
  <symbol id="logo-text" viewBox="0 0 74 23" fill="currentColor">
    <path d="M0.00496827 1.54857C0.00487772 1.21254 0.135804 0.889818 0.369742 0.649431C0.60368 0.409043 0.922049 0.27008 1.25676 0.262266H8.39001C13.4469 0.262266 16.7751 2.9645 16.7751 7.39179V7.45162C16.7751 12.2977 12.7415 14.8105 7.97274 14.8105H2.53836V21.611C2.55394 21.7874 2.53277 21.9651 2.47619 22.1329C2.41961 22.3006 2.32887 22.4547 2.20973 22.5854C2.09058 22.716 1.94565 22.8204 1.78416 22.8918C1.62266 22.9631 1.44812 23 1.27166 23C1.0952 23 0.920671 22.9631 0.759173 22.8918C0.597674 22.8204 0.452744 22.716 0.333602 22.5854C0.21446 22.4547 0.123708 22.3006 0.0671295 22.1329C0.0105515 21.9651 -0.0106138 21.7874 0.00496827 21.611V1.54857ZM8.07209 12.5171C11.7778 12.5171 14.2119 10.5228 14.2119 7.53139V7.47156C14.2119 4.26078 11.8175 2.59556 8.25092 2.59556H2.58804V12.4772L8.07209 12.5171Z" fill="currentColor"/>
    <path d="M21.5935 1.38904C21.5779 1.21262 21.5991 1.03487 21.6556 0.867114C21.7122 0.699353 21.803 0.545245 21.9221 0.414596C22.0412 0.283947 22.1862 0.179616 22.3477 0.108238C22.5092 0.0368607 22.6837 0 22.8602 0C23.0366 0 23.2112 0.0368607 23.3727 0.108238C23.5342 0.179616 23.6791 0.283947 23.7982 0.414596C23.9174 0.545245 24.0081 0.699353 24.0647 0.867114C24.1213 1.03487 24.1425 1.21262 24.1269 1.38904V21.611C24.1425 21.7874 24.1213 21.9651 24.0647 22.1329C24.0081 22.3006 23.9174 22.4548 23.7982 22.5854C23.6791 22.7161 23.5342 22.8204 23.3727 22.8918C23.2112 22.9631 23.0366 23 22.8602 23C22.6837 23 22.5092 22.9631 22.3477 22.8918C22.1862 22.8204 22.0412 22.7161 21.9221 22.5854C21.803 22.4548 21.7122 22.3006 21.6556 22.1329C21.5991 21.9651 21.5779 21.7874 21.5935 21.611V1.38904Z" fill="currentColor"/>
    <path d="M30.674 1.41895C30.6816 1.08908 30.8163 0.775007 31.0497 0.542621C31.2831 0.310235 31.597 0.177597 31.9258 0.172531H32.2735C32.5316 0.177833 32.7843 0.248188 33.0082 0.377127C33.2322 0.506065 33.4202 0.689448 33.5551 0.910412L47.1559 18.3104V1.35912C47.1559 1.0312 47.2857 0.7167 47.5168 0.484821C47.7478 0.252942 48.0611 0.122673 48.3879 0.122673C48.7146 0.122673 49.0279 0.252942 49.259 0.484821C49.49 0.7167 49.6198 1.0312 49.6198 1.35912V21.6508C49.6252 21.8051 49.5993 21.9589 49.5435 22.1028C49.4878 22.2467 49.4034 22.3777 49.2956 22.4878C49.1877 22.5979 49.0587 22.6848 48.9163 22.7432C48.7739 22.8016 48.6211 22.8303 48.4673 22.8275H48.3382C48.0744 22.8092 47.8184 22.7294 47.5908 22.5944C47.3631 22.4593 47.17 22.2728 47.0268 22.0497L33.1179 4.24085V21.6508C33.1158 21.9722 32.991 22.2805 32.7692 22.5124C32.5474 22.7442 32.2456 22.882 31.9258 22.8973C31.6008 22.892 31.291 22.7581 31.064 22.5246C30.8369 22.2911 30.711 21.9771 30.7137 21.6508V1.41895H30.674Z" fill="currentColor"/>
    <path d="M55.9384 1.38904C55.9228 1.21262 55.944 1.03487 56.0005 0.867114C56.0571 0.699353 56.1479 0.545245 56.267 0.414596C56.3862 0.283947 56.5311 0.179616 56.6926 0.108238C56.8541 0.0368607 57.0286 0 57.2051 0C57.3815 0 57.5561 0.0368607 57.7176 0.108238C57.8791 0.179616 58.024 0.283947 58.1431 0.414596C58.2623 0.545245 58.353 0.699353 58.4096 0.867114C58.4662 1.03487 58.4874 1.21262 58.4718 1.38904V13.6837L71.2282 0.551443C71.4899 0.279712 71.8455 0.119105 72.2216 0.10273C72.5468 0.115453 72.8548 0.252812 73.0821 0.486531C73.3094 0.72025 73.4388 1.03254 73.4436 1.35912C73.4366 1.52896 73.3961 1.69572 73.3245 1.84975C73.2529 2.00379 73.1516 2.14205 73.0264 2.25655L65.0785 10.1539L73.6523 20.6836C73.8764 20.9441 73.9998 21.2768 74 21.6209C73.9961 21.7933 73.9583 21.9633 73.8887 22.121C73.8191 22.2786 73.719 22.4209 73.5943 22.5395C73.4696 22.6582 73.3228 22.7509 73.1622 22.8123C73.0016 22.8737 72.8305 22.9026 72.6588 22.8973C72.4588 22.8891 72.2639 22.8322 72.0908 22.7314C71.9177 22.6306 71.7716 22.4891 71.6653 22.3189L63.3001 11.859L58.4718 16.7051V21.591C58.4718 21.7573 58.4391 21.922 58.3757 22.0756C58.3123 22.2293 58.2194 22.3689 58.1022 22.4865C57.9851 22.6041 57.846 22.6973 57.6929 22.761C57.5398 22.8246 57.3757 22.8574 57.21 22.8574C57.0443 22.8574 56.8803 22.8246 56.7272 22.761C56.5741 22.6973 56.435 22.6041 56.3179 22.4865C56.2007 22.3689 56.1078 22.2293 56.0443 22.0756C55.9809 21.922 55.9483 21.7573 55.9483 21.591V1.38904H55.9384Z" fill="currentColor"/>
  </symbol>
  <symbol id="logo-icon" viewBox="0 0 59 40" fill="currentColor">
    <path fill-rule="evenodd" clip-rule="evenodd" d="M53.8917 6.58616L58.9302 27.7312C59.0013 27.9491 59.0184 28.1815 58.98 28.4078C58.9417 28.6341 58.849 28.8472 58.7102 29.0284C58.5715 29.2096 58.3909 29.3532 58.1845 29.4465C57.978 29.5398 57.7522 29.58 57.5268 29.5635H53.5201C52.8298 35.3747 47.9494 39.8784 42.0315 39.8784C36.1136 39.8784 31.2332 35.3747 30.543 29.5635H28.5778C27.8869 35.442 22.9527 40 16.9685 40C10.9742 40 6.0335 35.4266 5.35571 29.5337H1.45014C1.22961 29.5445 1.00974 29.5014 0.808914 29.4082C0.608085 29.315 0.432119 29.1743 0.295711 28.9979C0.159304 28.8214 0.0664152 28.6144 0.0248022 28.3941C-0.0168108 28.1737 -0.00593994 27.9464 0.0565069 27.7312L5.10477 6.58616C5.45562 4.25872 7.63865 0 13.4861 0C13.8738 0 14.2456 0.156518 14.5197 0.435122C14.7939 0.713727 14.9479 1.0916 14.9479 1.4856C14.9479 1.87961 14.7939 2.25748 14.5197 2.53608C14.2456 2.81468 13.8738 2.9712 13.4861 2.9712C8.7789 2.9712 8.04797 6.6654 7.9895 7.07146L3.3408 26.6022H5.37467C6.12089 20.7847 11.0272 16.2918 16.9685 16.2918C22.9066 16.2918 27.8107 20.7798 28.5611 26.5926L30.5587 26.6017C31.3043 20.8518 36.1567 16.4134 42.0315 16.4134C47.9178 16.4134 52.7776 20.8691 53.5086 26.6353V26.5824H55.6459L51.007 7.07146C50.9387 6.6654 50.237 2.9712 45.5104 2.9712C45.1227 2.9712 44.7509 2.81468 44.4767 2.53608C44.2026 2.25748 44.0485 1.87961 44.0485 1.4856C44.0485 1.0916 44.2026 0.713727 44.4767 0.435122C44.7509 0.156518 45.1227 0 45.5104 0C51.3578 0 53.5408 4.25872 53.8917 6.58616ZM25.6722 29.5635C25.7448 29.1018 25.7825 28.6283 25.7825 28.1459C25.7825 27.6164 25.7371 27.0977 25.65 26.5935C24.9252 22.3982 21.3141 19.2097 16.9685 19.2097C12.6203 19.2097 9.00753 22.402 8.28571 26.601C8.19945 27.1028 8.15447 27.619 8.15447 28.1459C8.15447 28.6205 8.19096 29.0864 8.26125 29.541C8.92191 33.8136 12.5687 37.0821 16.9685 37.0821C21.3605 37.0821 25.0023 33.8251 25.6722 29.5635ZM50.6138 29.5635C50.6874 29.102 50.7256 28.6285 50.7256 28.1459C50.7256 23.2777 46.8331 19.3313 42.0315 19.3313C37.2299 19.3313 33.3374 23.2777 33.3374 28.1459C33.3374 28.6285 33.3756 29.102 33.4492 29.5635C34.118 33.7577 37.7058 36.9605 42.0315 36.9605C46.3572 36.9605 49.945 33.7577 50.6138 29.5635Z" fill="currentColor"/>
  </symbol>
  <symbol id="header-logo-icon-desktop" viewBox="0 0 61 40" fill="currentColor">
    <path d="M43.287 19.0665C43.5381 19.0665 43.7792 19.0665 44.0202 19.0665C43.8019 18.6987 43.4897 18.3932 43.1145 18.1802C42.7393 17.9672 42.3141 17.8541 41.8809 17.852C41.4627 17.8517 41.055 17.7231 40.7147 17.4842C40.3745 17.2452 40.1185 16.9078 39.9826 16.519C39.2588 16.7243 38.5561 16.9954 37.8834 17.3287H38.0743C38.607 17.3287 39.118 17.5368 39.4947 17.9071C39.8714 18.2775 40.083 18.7798 40.083 19.3035C40.088 19.3989 40.088 19.4945 40.083 19.5899C41.109 19.2223 42.1953 19.0449 43.287 19.0665V19.0665Z" fill="currentColor"/>
    <path d="M60.7332 27.6472L55.5406 6.56621C55.179 4.24582 52.9291 0 46.9028 0C46.5033 0 46.1201 0.156044 45.8375 0.433804C45.555 0.711564 45.3962 1.08829 45.3962 1.4811C45.3962 1.87391 45.555 2.25063 45.8375 2.52839C46.1201 2.80615 46.5033 2.9622 46.9028 2.9622C51.7741 2.9622 52.4973 6.6452 52.5676 7.05003L57.3485 26.5018H55.2493C55.0321 24.805 54.4439 23.1744 53.525 21.7222C52.6061 20.2701 51.3783 19.0307 49.926 18.0892C49.4712 18.2774 49.0829 18.5932 48.8096 18.9971C48.5363 19.401 48.3901 19.8751 48.3893 20.3602C48.3948 20.4457 48.3948 20.5314 48.3893 20.6169C49.6107 21.4404 50.6131 22.5401 51.3122 23.8236C52.0113 25.1072 52.3867 26.537 52.4069 27.9928C52.4008 28.4894 52.3538 28.9847 52.2663 29.4739C51.9374 31.5714 50.8559 33.484 49.2173 34.8657C47.5786 36.2474 45.4911 37.007 43.3322 37.007C41.1734 37.007 39.0859 36.2474 37.4472 34.8657C35.8086 33.484 34.727 31.5714 34.3982 29.4739C34.3107 28.9847 34.2637 28.4894 34.2576 27.9928C34.2733 26.6229 34.5993 25.2737 35.2118 24.0432C34.7037 24.0081 34.2282 23.7847 33.8814 23.4181C33.5346 23.0515 33.3424 22.569 33.3436 22.0684C33.3453 21.889 33.277 21.7159 33.1528 21.5846C32.181 23.0752 31.5662 24.7633 31.3549 26.5215H29.4868C29.1663 23.6174 27.7658 20.9319 25.5542 18.9809C23.3427 17.0298 20.4759 15.9507 17.5044 15.9507C14.5329 15.9507 11.6662 17.0298 9.45463 18.9809C7.24307 20.9319 5.84259 23.6174 5.5221 26.5215H3.44302L8.23394 7.05003C8.29421 6.6452 9.0475 2.9622 13.8987 2.9622C14.2983 2.9622 14.6815 2.80615 14.964 2.52839C15.2465 2.25063 15.4053 1.87391 15.4053 1.4811C15.4053 1.08829 15.2465 0.711564 14.964 0.433804C14.6815 0.156044 14.2983 0 13.8987 0C7.87236 0 5.62254 4.24582 5.26096 6.56621L0.0582358 27.6472C-0.00612168 27.8617 -0.0173251 28.0883 0.0255611 28.308C0.0684473 28.5277 0.164178 28.7341 0.304759 28.91C0.44534 29.0859 0.62669 29.2262 0.833664 29.3191C1.04064 29.4121 1.26723 29.455 1.49451 29.4442H5.51206C5.59378 30.055 5.72135 30.659 5.89372 31.2512C5.95717 31.1429 5.99172 31.0206 5.99416 30.8957C5.99416 30.372 6.2058 29.8697 6.58252 29.4993C6.95923 29.129 7.47017 28.9209 8.00293 28.9209C8.16525 28.9248 8.32675 28.9446 8.48504 28.9802C8.44252 28.6526 8.41904 28.323 8.41473 27.9928C8.41742 27.4964 8.46109 27.0011 8.5453 26.5117C8.86708 24.4074 9.94626 22.4864 11.5867 21.0981C13.2271 19.7097 15.3198 18.9461 17.4843 18.9461C19.6489 18.9461 21.7416 19.7097 23.382 21.0981C25.0224 22.4864 26.1016 24.4074 26.4234 26.5117C26.5076 27.0011 26.5513 27.4964 26.554 27.9928C26.5638 29.6507 26.1017 31.2782 25.2199 32.6915C24.3381 34.1047 23.0717 35.2472 21.5639 35.9899C20.0561 36.7326 18.3671 37.0458 16.6877 36.8942C15.0083 36.7425 13.4056 36.132 12.0607 35.1317C11.6982 35.4411 11.235 35.6128 10.755 35.6155C10.5569 35.6181 10.3679 35.6973 10.2288 35.8359C10.0897 35.9745 10.0117 36.1613 10.0117 36.356C10.009 36.6321 9.94739 36.9046 9.83092 37.1558C11.9797 38.9066 14.6835 39.8636 17.4743 39.8613C20.4223 39.8738 23.2728 38.8236 25.4864 36.9095C27.7 34.9953 29.1232 32.35 29.4868 29.4739H31.3147C31.6456 32.3691 33.0499 35.0431 35.2593 36.9848C37.4688 38.9266 40.3285 40 43.2921 40C46.2557 40 49.1154 38.9266 51.3248 36.9848C53.5343 35.0431 54.9385 32.3691 55.2694 29.4739H59.2869C59.5191 29.4904 59.7519 29.4503 59.9647 29.3573C60.1774 29.2642 60.3635 29.121 60.5065 28.9404C60.6495 28.7598 60.7451 28.5473 60.7846 28.3217C60.8241 28.0961 60.8065 27.8645 60.7332 27.6472V27.6472Z" fill="currentColor"/>
    <path d="M50.9203 15.9168C50.3273 15.9181 49.7398 15.8044 49.1915 15.5822C48.6432 15.36 48.1448 15.0336 47.725 14.6218C47.3052 14.21 46.9721 13.7208 46.7448 13.1823C46.5176 12.6437 46.4006 12.0664 46.4006 11.4834C46.3979 12.6601 45.9206 13.7878 45.0733 14.6189C44.2259 15.45 43.0778 15.9168 41.8809 15.9168C43.0788 15.9194 44.2268 16.3884 45.0739 17.2211C45.9209 18.0538 46.3979 19.1825 46.4006 20.3601C46.4006 19.1817 46.8768 18.0515 47.7244 17.2182C48.572 16.385 49.7216 15.9168 50.9203 15.9168V15.9168Z" fill="#D22856"/>
    <path d="M38.0743 19.3828C37.3417 19.3828 36.6392 19.0967 36.1212 18.5875C35.6032 18.0783 35.3122 17.3876 35.3122 16.6675C35.3122 17.3859 35.0226 18.0751 34.5068 18.584C33.9909 19.093 33.291 19.3802 32.5602 19.3828C33.2901 19.3828 33.99 19.6679 34.5062 20.1752C35.0223 20.6826 35.3122 21.3708 35.3122 22.0883C35.3149 21.3699 35.607 20.6817 36.1247 20.1746C36.6424 19.6675 37.3435 19.3828 38.0743 19.3828V19.3828Z" fill="#D22856"/>
    <path d="M10.785 33.6406C10.056 33.6354 9.35856 33.347 8.84491 32.8384C8.33126 32.3297 8.04302 31.642 8.04303 30.9253C8.04304 31.6437 7.75342 32.3329 7.2376 32.8419C6.72178 33.3508 6.02182 33.638 5.29102 33.6406C6.02182 33.6433 6.72178 33.9305 7.2376 34.4394C7.75342 34.9484 8.04304 35.6375 8.04303 36.356C8.04302 35.6392 8.33126 34.9516 8.84491 34.4429C9.35856 33.9342 10.056 33.6459 10.785 33.6406Z" fill="#D22856"/>
  </symbol>
  <symbol id="footer-logo-icon-desktop" viewBox="0 0 61 40" fill="currentColor">
    <path d="M43.287 19.0665C43.5381 19.0665 43.7792 19.0665 44.0202 19.0665C43.8019 18.6987 43.4897 18.3932 43.1145 18.1802C42.7393 17.9672 42.3141 17.8541 41.8809 17.852C41.4627 17.8517 41.055 17.7231 40.7147 17.4842C40.3745 17.2452 40.1185 16.9078 39.9826 16.519C39.2588 16.7243 38.5561 16.9954 37.8834 17.3287H38.0743C38.607 17.3287 39.118 17.5368 39.4947 17.9071C39.8714 18.2775 40.083 18.7798 40.083 19.3035C40.088 19.3989 40.088 19.4945 40.083 19.5899C41.109 19.2223 42.1953 19.0449 43.287 19.0665Z" fill="currentColor"/>
    <path d="M60.7332 27.6472L55.5406 6.56621C55.179 4.24582 52.9291 0 46.9028 0C46.5033 0 46.1201 0.156044 45.8375 0.433804C45.555 0.711564 45.3962 1.08829 45.3962 1.4811C45.3962 1.87391 45.555 2.25063 45.8375 2.52839C46.1201 2.80615 46.5033 2.9622 46.9028 2.9622C51.7741 2.9622 52.4973 6.6452 52.5676 7.05003L57.3484 26.5018H55.2493C55.0321 24.805 54.4439 23.1744 53.525 21.7222C52.6061 20.2701 51.3783 19.0307 49.926 18.0892C49.4712 18.2774 49.0829 18.5932 48.8096 18.9971C48.5363 19.401 48.3901 19.8751 48.3893 20.3602C48.3948 20.4457 48.3948 20.5314 48.3893 20.6169C49.6107 21.4404 50.6131 22.5401 51.3122 23.8236C52.0113 25.1072 52.3867 26.537 52.4069 27.9928C52.4008 28.4894 52.3538 28.9847 52.2663 29.4739C51.9375 31.5714 50.8559 33.484 49.2173 34.8657C47.5786 36.2474 45.4911 37.007 43.3322 37.007C41.1734 37.007 39.0859 36.2474 37.4472 34.8657C35.8086 33.484 34.727 31.5714 34.3982 29.4739C34.3107 28.9847 34.2636 28.4894 34.2576 27.9928C34.2733 26.6229 34.5993 25.2737 35.2118 24.0432C34.7037 24.0081 34.2282 23.7847 33.8814 23.4181C33.5346 23.0515 33.3424 22.569 33.3436 22.0684C33.3453 21.889 33.277 21.7159 33.1528 21.5846C32.181 23.0752 31.5662 24.7633 31.3549 26.5215H29.4868C29.1663 23.6174 27.7658 20.9319 25.5542 18.9809C23.3427 17.0298 20.4759 15.9507 17.5044 15.9507C14.5329 15.9507 11.6662 17.0298 9.45463 18.9809C7.24307 20.9319 5.84259 23.6174 5.5221 26.5215H3.44302L8.23394 7.05003C8.29421 6.6452 9.0475 2.9622 13.8987 2.9622C14.2983 2.9622 14.6815 2.80615 14.964 2.52839C15.2465 2.25063 15.4053 1.87391 15.4053 1.4811C15.4053 1.08829 15.2465 0.711564 14.964 0.433804C14.6815 0.156044 14.2983 0 13.8987 0C7.87236 0 5.62254 4.24582 5.26096 6.56621L0.0582358 27.6472C-0.00612168 27.8617 -0.0173251 28.0883 0.0255611 28.308C0.0684473 28.5277 0.164178 28.7341 0.304759 28.91C0.44534 29.0859 0.62669 29.2262 0.833664 29.3191C1.04064 29.4121 1.26723 29.455 1.49451 29.4443H5.51206C5.59378 30.055 5.72135 30.659 5.89372 31.2512C5.95717 31.1429 5.99172 31.0206 5.99416 30.8957C5.99416 30.372 6.2058 29.8697 6.58252 29.4993C6.95923 29.129 7.47017 28.9209 8.00293 28.9209C8.16525 28.9248 8.32675 28.9446 8.48504 28.9802C8.44252 28.6526 8.41904 28.323 8.41473 27.9928C8.41742 27.4964 8.46109 27.0011 8.5453 26.5117C8.86708 24.4074 9.94627 22.4864 11.5867 21.0981C13.2271 19.7097 15.3198 18.9461 17.4843 18.9461C19.6489 18.9461 21.7416 19.7097 23.382 21.0981C25.0224 22.4864 26.1016 24.4074 26.4234 26.5117C26.5076 27.0011 26.5513 27.4964 26.554 27.9928C26.5638 29.6507 26.1017 31.2782 25.2199 32.6915C24.3381 34.1047 23.0717 35.2472 21.5639 35.9899C20.0561 36.7326 18.3671 37.0458 16.6877 36.8942C15.0083 36.7425 13.4056 36.132 12.0607 35.1317C11.6982 35.4412 11.235 35.6128 10.755 35.6155C10.5569 35.6181 10.3679 35.6973 10.2288 35.8359C10.0897 35.9745 10.0117 36.1613 10.0117 36.356C10.009 36.6321 9.94739 36.9046 9.83092 37.1558C11.9797 38.9066 14.6835 39.8636 17.4743 39.8613C20.4223 39.8738 23.2728 38.8236 25.4864 36.9095C27.7 34.9953 29.1232 32.35 29.4868 29.4739H31.3147C31.6456 32.3691 33.0499 35.0431 35.2593 36.9848C37.4688 38.9266 40.3285 40 43.2921 40C46.2557 40 49.1154 38.9266 51.3248 36.9848C53.5343 35.0431 54.9385 32.3691 55.2694 29.4739H59.2869C59.5191 29.4904 59.7519 29.4503 59.9647 29.3573C60.1774 29.2642 60.3635 29.121 60.5065 28.9404C60.6495 28.7598 60.7451 28.5473 60.7846 28.3217C60.8241 28.0961 60.8065 27.8645 60.7332 27.6472Z" fill="#currentColor"/>
    <path d="M50.9203 15.9168C50.3273 15.9181 49.7398 15.8044 49.1915 15.5822C48.6432 15.36 48.1448 15.0336 47.725 14.6218C47.3052 14.21 46.9721 13.7208 46.7448 13.1823C46.5176 12.6437 46.4006 12.0664 46.4006 11.4834C46.3979 12.6601 45.9206 13.7878 45.0733 14.6189C44.2259 15.45 43.0778 15.9168 41.8809 15.9168C43.0788 15.9194 44.2268 16.3884 45.0739 17.2211C45.9209 18.0538 46.3979 19.1825 46.4006 20.3601C46.4006 19.1817 46.8768 18.0515 47.7244 17.2182C48.572 16.385 49.7216 15.9168 50.9203 15.9168Z" fill="#283645"/>
    <path d="M38.0743 19.3828C37.3417 19.3828 36.6392 19.0967 36.1212 18.5875C35.6032 18.0783 35.3122 17.3876 35.3122 16.6675C35.3122 17.3859 35.0226 18.0751 34.5068 18.584C33.9909 19.093 33.291 19.3802 32.5602 19.3828C33.2901 19.3828 33.99 19.6679 34.5062 20.1752C35.0223 20.6826 35.3122 21.3708 35.3122 22.0883C35.3149 21.3699 35.607 20.6817 36.1247 20.1746C36.6424 19.6675 37.3435 19.3828 38.0743 19.3828Z" fill="#283645"/>
    <path d="M10.785 33.6406C10.056 33.6354 9.35856 33.347 8.84491 32.8384C8.33126 32.3297 8.04302 31.642 8.04303 30.9253C8.04304 31.6437 7.75342 32.3329 7.2376 32.8419C6.72178 33.3508 6.02182 33.638 5.29102 33.6406C6.02182 33.6433 6.72178 33.9305 7.2376 34.4394C7.75342 34.9484 8.04304 35.6375 8.04303 36.356C8.04302 35.6392 8.33126 34.9516 8.84491 34.4429C9.35856 33.9342 10.056 33.6459 10.785 33.6406Z" fill="#283645"/>
  </symbol>
  <symbol id="logo-text-desktop" viewBox="0 0 75 34" fill="currentColor">
    <path d="M0.193255 12.4251C0.193164 12.0924 0.325526 11.7728 0.56203 11.5348C0.798535 11.2967 1.1204 11.1591 1.45878 11.1514H8.67027C13.7826 11.1514 17.1473 13.8272 17.1473 18.2113V18.2705C17.1473 23.0693 13.0695 25.5575 8.24843 25.5575H2.75444V32.2916C2.77019 32.4663 2.74878 32.6423 2.69159 32.8084C2.63439 32.9745 2.54265 33.1271 2.4222 33.2565C2.30175 33.3859 2.15523 33.4892 1.99196 33.5599C1.82869 33.6306 1.65224 33.6671 1.47384 33.6671C1.29544 33.6671 1.119 33.6306 0.955733 33.5599C0.792463 33.4892 0.645943 33.3859 0.525494 33.2565C0.405045 33.1271 0.313297 32.9745 0.256098 32.8084C0.1989 32.6423 0.177502 32.4663 0.193255 32.2916V12.4251ZM8.34887 23.2865C12.0952 23.2865 14.556 21.3117 14.556 18.3495V18.2903C14.556 15.1108 12.1354 13.4619 8.52966 13.4619H2.80466V23.247L8.34887 23.2865Z" fill="currentColor"/>
    <path d="M22.0186 12.2671C22.0028 12.0924 22.0242 11.9164 22.0814 11.7502C22.1386 11.5841 22.2304 11.4315 22.3508 11.3021C22.4713 11.1728 22.6178 11.0695 22.781 10.9988C22.9443 10.9281 23.1208 10.8916 23.2992 10.8916C23.4776 10.8916 23.654 10.9281 23.8173 10.9988C23.9806 11.0695 24.1271 11.1728 24.2475 11.3021C24.368 11.4315 24.4597 11.5841 24.5169 11.7502C24.5741 11.9164 24.5955 12.0924 24.5798 12.2671V32.2915C24.5955 32.4662 24.5741 32.6422 24.5169 32.8084C24.4597 32.9745 24.368 33.1271 24.2475 33.2565C24.1271 33.3858 23.9806 33.4891 23.8173 33.5598C23.654 33.6305 23.4776 33.667 23.2992 33.667C23.1208 33.667 22.9443 33.6305 22.781 33.5598C22.6178 33.4891 22.4713 33.3858 22.3508 33.2565C22.2304 33.1271 22.1386 32.9745 22.0814 32.8084C22.0242 32.6422 22.0028 32.4662 22.0186 32.2915V12.2671Z" fill="currentColor"/>
    <path d="M31.1987 12.2963C31.2065 11.9697 31.3426 11.6587 31.5786 11.4285C31.8145 11.1984 32.1319 11.0671 32.4643 11.0621H32.8158C33.0768 11.0673 33.3322 11.137 33.5586 11.2647C33.785 11.3923 33.9751 11.5739 34.1115 11.7927L47.8615 29.0229V12.2371C47.8615 11.9123 47.9927 11.6009 48.2263 11.3713C48.4599 11.1417 48.7766 11.0127 49.1069 11.0127C49.4373 11.0127 49.754 11.1417 49.9876 11.3713C50.2212 11.6009 50.3524 11.9123 50.3524 12.2371V32.3306C50.3579 32.4834 50.3316 32.6357 50.2753 32.7782C50.2189 32.9207 50.1336 33.0504 50.0246 33.1594C49.9156 33.2685 49.7851 33.3545 49.6412 33.4123C49.4972 33.4702 49.3428 33.4986 49.1873 33.4958H49.0567C48.79 33.4777 48.5313 33.3987 48.3011 33.265C48.0709 33.1313 47.8757 32.9466 47.7309 32.7256L33.6695 15.0907V32.3306C33.6673 32.6489 33.5411 32.9542 33.317 33.1838C33.0928 33.4134 32.7876 33.5498 32.4643 33.5649C32.1357 33.5597 31.8225 33.4271 31.593 33.1959C31.3635 32.9647 31.2362 32.6537 31.2389 32.3306V12.2963H31.1987Z" fill="currentColor"/>
    <path d="M56.7403 12.2671C56.7245 12.0924 56.7459 11.9164 56.8031 11.7502C56.8603 11.5841 56.952 11.4315 57.0725 11.3021C57.1929 11.1728 57.3395 11.0695 57.5027 10.9988C57.666 10.9281 57.8425 10.8916 58.0209 10.8916C58.1993 10.8916 58.3757 10.9281 58.539 10.9988C58.7022 11.0695 58.8487 11.1728 58.9692 11.3021C59.0896 11.4315 59.1814 11.5841 59.2386 11.7502C59.2958 11.9164 59.3172 12.0924 59.3014 12.2671V24.4417L72.1978 11.4377C72.4623 11.1686 72.8218 11.0095 73.2021 10.9933C73.5309 11.0059 73.8422 11.1419 74.072 11.3734C74.3018 11.6048 74.4326 11.9141 74.4375 12.2375C74.4304 12.4056 74.3895 12.5708 74.3171 12.7233C74.2447 12.8758 74.1423 13.0127 74.0157 13.1261L65.9806 20.9463L74.6485 31.3733C74.875 31.6312 74.9998 31.9606 75 32.3014C74.9961 32.4721 74.9579 32.6404 74.8875 32.7965C74.8171 32.9527 74.7159 33.0936 74.5899 33.2111C74.4638 33.3286 74.3153 33.4203 74.153 33.4811C73.9907 33.5419 73.8177 33.5705 73.6441 33.5653C73.4414 33.5598 73.2432 33.5045 73.0678 33.4045C72.8924 33.3044 72.7452 33.1629 72.6397 32.9926L64.1928 22.6348L59.3014 27.4335V32.2718C59.3014 32.4365 59.2684 32.5995 59.2043 32.7517C59.1402 32.9038 59.0463 33.0421 58.9278 33.1585C58.8094 33.2749 58.6688 33.3673 58.514 33.4303C58.3592 33.4933 58.1934 33.5258 58.0259 33.5258C57.8584 33.5258 57.6925 33.4933 57.5377 33.4303C57.383 33.3673 57.2423 33.2749 57.1239 33.1585C57.0055 33.0421 56.9115 32.9038 56.8474 32.7517C56.7833 32.5995 56.7503 32.4365 56.7503 32.2718V12.2671H56.7403Z" fill="currentColor"/>
    <path d="M26.9401 3.74577C25.9749 3.74578 25.0491 3.36951 24.3656 2.69946C23.6822 2.02942 23.2969 1.12028 23.2942 0.171387C23.2942 1.11937 22.9111 2.02853 22.2293 2.69886C21.5474 3.36919 20.6226 3.74577 19.6583 3.74577C20.6235 3.74839 21.5483 4.12717 22.2299 4.79906C22.9115 5.47096 23.2942 6.38114 23.2942 7.33003C23.2969 6.38023 23.6818 5.47007 24.365 4.79846C25.0482 4.12684 25.974 3.74838 26.9401 3.74577V3.74577Z" fill="#D22856"/>
  </symbol>
  <symbol id="icon-iphone" viewBox="0 0 47 56" fill="currentColor">
    <path d="M39.2449 29.7391C39.2544 32.1546 39.994 34.5144 41.3723 36.5268C42.7506 38.5393 44.7071 40.1162 47 41.0627C46.0779 43.8922 44.7301 46.5744 43.0003 49.0227C40.5985 52.4356 38.0949 55.8386 34.1562 55.9273C30.2176 56.0161 29.0676 53.708 24.6303 53.708C20.193 53.708 18.8292 55.8583 15.1654 55.9964C11.5016 56.1345 8.47889 52.2778 6.07705 48.8846C1.1207 41.98 -2.67543 29.246 2.41322 20.6842C3.60995 18.6123 5.34099 16.8769 7.43708 15.6476C9.53317 14.4183 11.9225 13.7373 14.3716 13.6711C18.0964 13.6021 21.6178 16.0976 23.8975 16.0976C26.1772 16.0976 30.4619 13.0892 34.9602 13.533C37.0437 13.6063 39.0815 14.1457 40.9142 15.1091C42.7468 16.0725 44.3247 17.4337 45.5243 19.0863C45.2495 19.254 39.2144 22.657 39.2754 29.7391H39.2449ZM31.9783 8.93654C34.1591 6.45976 35.2387 3.24645 34.9806 0C31.6761 0.302095 28.6167 1.81996 26.4317 4.2414C24.5692 6.33251 22.9307 9.68618 23.3785 12.9018C26.625 13.1484 29.9327 11.3038 31.9478 8.95627" fill="white"/>
  </symbol>
  <symbol id="icon-android" viewBox="0 0 43 47" fill="currentColor">
    <path d="M34.8864 14.0617H8.11359C8.11359 14.1718 8.11359 14.282 8.11359 14.3922V33.1955C8.10298 34.1078 8.44648 34.99 9.0745 35.6633C9.70251 36.3367 10.5681 36.7508 11.496 36.8219V44.2751C11.5402 45.0122 11.8701 45.7048 12.4181 46.2114C12.9661 46.7179 13.6909 47 14.444 47C15.1972 47 15.9219 46.7179 16.4699 46.2114C17.0179 45.7048 17.3478 45.0122 17.3921 44.2751V36.842H25.6283V44.2751C25.6726 45.0122 26.0025 45.7048 26.5505 46.2114C27.0985 46.7179 27.8232 47 28.5764 47C29.3296 47 30.0543 46.7179 30.6023 46.2114C31.1503 45.7048 31.4802 45.0122 31.5245 44.2751V36.8219C32.4532 36.7509 33.32 36.3371 33.9496 35.664C34.5793 34.991 34.925 34.1088 34.917 33.1955V14.4023C34.9068 14.2921 34.8966 14.1819 34.8864 14.0617Z" fill="#A4C639"/>
    <path d="M2.95318 15.7446C3.73371 15.7446 4.48226 16.0486 5.03417 16.5897C5.58609 17.1307 5.89615 17.8646 5.89615 18.6297V31.0317C5.89749 31.4114 5.82236 31.7876 5.67507 32.1388C5.52777 32.49 5.31121 32.8093 5.03779 33.0782C4.76438 33.3472 4.4395 33.5606 4.08177 33.7062C3.72405 33.8518 3.34052 33.9268 2.95318 33.9268C2.16995 33.9268 1.4188 33.6218 0.864967 33.0788C0.311138 32.5359 0 31.7995 0 31.0317V18.6297C-2.33488e-06 18.25 0.076457 17.874 0.224993 17.5233C0.37353 17.1726 0.591221 16.8541 0.865584 16.5861C1.13995 16.3181 1.46558 16.1058 1.82382 15.9614C2.18206 15.817 2.56585 15.7433 2.95318 15.7446Z" fill="#A4C639"/>
    <path d="M40.057 15.7446C40.8375 15.7446 41.5861 16.0486 42.138 16.5897C42.6899 17.1307 43 17.8646 43 18.6297V31.0317C43.0013 31.4114 42.9262 31.7876 42.7789 32.1388C42.6316 32.49 42.415 32.8093 42.1416 33.0782C41.8682 33.3472 41.5433 33.5606 41.1856 33.7062C40.8279 33.8518 40.4444 33.9268 40.057 33.9268C39.2738 33.9268 38.5226 33.6218 37.9688 33.0788C37.415 32.5359 37.1038 31.7995 37.1038 31.0317V18.6297C37.1038 18.25 37.1803 17.874 37.3288 17.5233C37.4774 17.1726 37.6951 16.8541 37.9694 16.5861C38.2438 16.3181 38.5694 16.1058 38.9277 15.9614C39.2859 15.817 39.6697 15.7433 40.057 15.7446Z" fill="#A4C639"/>
    <path d="M8.1749 12.0581H34.7433C34.6757 9.30184 33.5048 6.68226 31.4836 4.76521L34.0485 0.497656C34.0753 0.460664 34.0936 0.418348 34.1019 0.373689C34.1103 0.32903 34.1086 0.283115 34.0969 0.239179C34.0852 0.195243 34.0638 0.154355 34.0343 0.119396C34.0047 0.0844363 33.9677 0.0562562 33.9258 0.0368408C33.8548 -0.000483829 33.7719 -0.00986479 33.6941 0.010608C33.6163 0.0310808 33.5493 0.079868 33.5069 0.147036L31.0851 4.30439C28.3256 2.19779 24.9549 1.00508 21.4591 0.898365C17.9845 1.03299 14.6384 2.22325 11.8843 4.30439L9.50332 0.187107C9.46579 0.112239 9.39997 0.0546621 9.31983 0.0266048C9.2397 -0.00145257 9.15156 0.00221937 9.07414 0.0368408C9.00488 0.0802746 8.95485 0.147693 8.93402 0.225666C8.91319 0.303639 8.92308 0.386444 8.96174 0.457585L11.4551 4.69508C9.41279 6.62849 8.2336 9.27542 8.1749 12.0581ZM25.8736 6.84889C25.8736 6.45036 26.0351 6.06816 26.3225 5.78635C26.61 5.50455 26.9998 5.34623 27.4064 5.34623C27.8129 5.34623 28.2028 5.50455 28.4902 5.78635C28.7777 6.06816 28.9391 6.45036 28.9391 6.84889C28.9391 7.24742 28.7777 7.62963 28.4902 7.91143C28.2028 8.19324 27.8129 8.35155 27.4064 8.35155C26.9998 8.35155 26.61 8.19324 26.3225 7.91143C26.0351 7.62963 25.8736 7.24742 25.8736 6.84889ZM14.49 6.84889C14.49 6.45036 14.6515 6.06816 14.939 5.78635C15.2264 5.50455 15.6163 5.34623 16.0228 5.34623C16.4293 5.34623 16.8192 5.50455 17.1067 5.78635C17.3941 6.06816 17.5556 6.45036 17.5556 6.84889C17.5556 7.24742 17.3941 7.62963 17.1067 7.91143C16.8192 8.19324 16.4293 8.35155 16.0228 8.35155C15.6163 8.35155 15.2264 8.19324 14.939 7.91143C14.6515 7.62963 14.49 7.24742 14.49 6.84889Z" fill="#A4C639"/>
  </symbol>
  <symbol id="icon-windows" viewBox="0 0 44 41" fill="currentColor">
    <path d="M20.908 19.5238H0V0H20.908V19.5238Z" fill="#F05423"/>
    <path d="M44 19.5238H23.092V0H44V19.5238Z" fill="#84C441"/>
    <path d="M20.908 41H0V21.4762H20.908V41Z" fill="#2DABE2"/>
    <path d="M44 41H23.092V21.4762H44V41Z" fill="#F9BC15"/>
  </symbol>
  <symbol id="icon-time" viewBox="0 0 238 276" fill="currentColor">
    <rect x="34" y="71" width="178" height="171" fill="none"/>
    <path d="M211.314 81.6277L215.587 77.3408C221.752 71.1663 222.878 62.1925 218.086 57.4017C213.294 52.6109 204.334 53.7227 198.176 59.8971L193.871 64.208C176.746 50.2779 156.074 41.4187 134.187 38.6304V30.9603H140.305C149.019 30.9603 156.151 23.994 156.151 15.4842C156.151 6.97427 149.019 0 140.305 0H97.7208C89.0075 0 81.8754 6.96627 81.8754 15.4842C81.8754 24.002 89.0075 30.9603 97.7208 30.9603H103.839V38.6304C77.6967 41.9933 53.4093 53.9522 34.7872 72.6308C16.1652 91.3093 4.26218 115.651 0.945904 141.835C-2.37038 168.02 3.08771 194.566 16.4638 217.309C29.8399 240.052 50.377 257.704 74.8528 267.496C99.3286 277.288 126.358 278.665 151.7 271.412C177.042 264.16 199.263 248.687 214.875 227.421C230.488 206.156 238.609 180.302 237.964 153.915C237.32 127.529 227.946 102.103 211.314 81.6277V81.6277ZM119.013 244.947C101.61 244.947 84.5984 239.779 70.1286 230.097C55.6589 220.414 44.3813 206.652 37.7219 190.551C31.0625 174.45 29.3205 156.733 32.7162 139.64C36.1119 122.547 44.4927 106.847 56.7989 94.5241C69.105 82.2015 84.7837 73.81 101.852 70.411C118.921 67.012 136.613 68.7581 152.69 75.4285C168.768 82.0989 182.509 93.3939 192.176 107.885C201.844 122.377 207.003 139.413 207.001 156.841C206.999 180.209 197.728 202.619 181.227 219.142C164.726 235.665 142.348 244.947 119.013 244.947V244.947Z" fill="#DEDEDE"/>
    <circle cx="119" cy="157" r="93" stroke="#D22856" stroke-width="16" fill="none"/>
    <path d="M115.906 191H68V180.922L85.2031 163.531C90.2969 158.312 93.625 154.703 95.1875 152.703C96.75 150.672 97.875 148.797 98.5625 147.078C99.25 145.359 99.5938 143.578 99.5938 141.734C99.5938 138.984 98.8281 136.938 97.2969 135.594C95.7969 134.25 93.7812 133.578 91.25 133.578C88.5938 133.578 86.0156 134.188 83.5156 135.406C81.0156 136.625 78.4062 138.359 75.6875 140.609L67.8125 131.281C71.1875 128.406 73.9844 126.375 76.2031 125.188C78.4219 124 80.8438 123.094 83.4688 122.469C86.0938 121.812 89.0312 121.484 92.2812 121.484C96.5625 121.484 100.344 122.266 103.625 123.828C106.906 125.391 109.453 127.578 111.266 130.391C113.078 133.203 113.984 136.422 113.984 140.047C113.984 143.203 113.422 146.172 112.297 148.953C111.203 151.703 109.484 154.531 107.141 157.438C104.828 160.344 100.734 164.484 94.8594 169.859L86.0469 178.156V178.812H115.906V191ZM172.297 176.797H164.047V191H149.891V176.797H120.641V166.719L150.688 122.469H164.047V165.547H172.297V176.797ZM149.891 165.547V153.922C149.891 151.984 149.969 149.172 150.125 145.484C150.281 141.797 150.406 139.656 150.5 139.062H150.125C148.969 141.625 147.578 144.125 145.953 146.562L133.391 165.547H149.891Z" fill="#D22856"/>
  </symbol>
  <symbol id="icon-crop" viewBox="0 0 44 44" fill="currentColor">
    <path d="M32 28H36V12C36 10.9391 35.5786 9.92172 34.8284 9.17157C34.0783 8.42143 33.0609 8 32 8H16V12H32V28ZM12 32V0H8V8H0V12H8V32C8 33.0609 8.42143 34.0783 9.17157 34.8284C9.92172 35.5786 10.9391 36 12 36H32V44H36V36H44V32H12Z"/>
  </symbol>
  <symbol id="icon-fill" viewBox="0 0 48 43" fill="currentColor">
    <path d="M33.12 17.88L15.24 0L12.41 2.83L17.17 7.59L6.88 17.88C6.3182 18.4425 6.00264 19.205 6.00264 20C6.00264 20.795 6.3182 21.5575 6.88 22.12L17.88 33.12C18.4425 33.6818 19.205 33.9974 20 33.9974C20.795 33.9974 21.5575 33.6818 22.12 33.12L33.12 22.12C33.6818 21.5575 33.9974 20.795 33.9974 20C33.9974 19.205 33.6818 18.4425 33.12 17.88ZM10.41 20L20 10.42L29.59 20H10.41ZM38 23C38 23 34 27.33 34 30C34 31.0609 34.4214 32.0783 35.1716 32.8284C35.9217 33.5786 36.9391 34 38 34C39.0609 34 40.0783 33.5786 40.8284 32.8284C41.5786 32.0783 42 31.0609 42 30C42 27.33 38 23 38 23Z"/>
    <path d="M48 40H0V43H48V40Z"/>
  </symbol>
  <symbol id="icon-contrast" viewBox="0 0 32 32" fill="currentColor">
    <path d="M16 4C18.3734 4 20.6935 4.70379 22.6669 6.02236C24.6402 7.34094 26.1783 9.21509 27.0866 11.4078C27.9948 13.6005 28.2325 16.0133 27.7694 18.3411C27.3064 20.6689 26.1635 22.8071 24.4853 24.4853C22.8071 26.1635 20.6689 27.3064 18.3411 27.7694C16.0133 28.2324 13.6005 27.9948 11.4078 27.0866C9.21509 26.1783 7.34095 24.6402 6.02237 22.6668C4.70379 20.6935 4.00001 18.3734 4.00001 16C4.00001 12.8174 5.26429 9.76515 7.51473 7.51472C9.76516 5.26428 12.8174 4 16 4ZM16 0C12.8355 0 9.74207 0.938384 7.11088 2.69649C4.4797 4.45459 2.42894 6.95345 1.21793 9.87706C0.0069325 12.8007 -0.309921 16.0177 0.307443 19.1214C0.924806 22.2251 2.44866 25.0761 4.6863 27.3137C6.92394 29.5513 9.77487 31.0752 12.8786 31.6926C15.9823 32.3099 19.1993 31.9931 22.1229 30.7821C25.0466 29.5711 27.5454 27.5203 29.3035 24.8891C31.0616 22.2579 32 19.1645 32 16C32 11.7565 30.3143 7.68687 27.3137 4.68629C24.3131 1.68571 20.2435 0 16 0Z"/>
    <path d="M16 24.29C18.1536 24.1422 20.1708 23.1824 21.644 21.6046C23.1172 20.0268 23.9366 17.9486 23.9366 15.79C23.9366 13.6314 23.1172 11.5532 21.644 9.97538C20.1708 8.39759 18.1536 7.43782 16 7.29"/>
  </symbol>
  <symbol id="icon-twitter" viewBox="0 0 18 14" fill="currentColor">
    <path d="M11.5641 0.168904C12.2458 -0.0461515 12.9837 -0.0560928 13.6719 0.140507C14.3602 0.337107 14.9633 0.730138 15.3947 1.26319C16.1053 1.05385 16.8055 0.815959 17.5263 0.606617C17.5164 0.925848 17.4299 1.23907 17.2732 1.52372C17.1165 1.80837 16.8935 2.05738 16.6201 2.2528C16.8726 2.27877 17.1281 2.25112 17.3673 2.17197C17.6064 2.09281 17.8228 1.96424 18 1.79606C17.901 2.20987 17.6999 2.59695 17.4123 2.92708C17.1247 3.2572 16.7585 3.52144 16.3421 3.69916C16.095 9.96988 12.9748 14.1662 5.65332 13.9949H5.14874C4.70595 13.9949 0.731121 13.5667 0 12.2441C1.75201 12.4899 3.53888 12.0976 4.98398 11.1498C3.95423 10.8643 2.13158 10.7026 1.82265 8.40934C2.2108 8.54337 2.6321 8.57306 3.03776 8.49498C1.76087 7.70519 0.339817 7.0391 0.422197 4.99327C0.819634 5.29882 1.3269 5.45507 1.84325 5.43098C1.10183 5.20261 -0.24714 2.30989 0.895881 0.825474C2.82151 2.54778 4.86041 4.17493 8.48512 4.3367C8.71167 2.20522 9.68993 0.777896 11.5641 0.168904Z"/>
  </symbol>
  <symbol id="icon-facebook" viewBox="0 0 9 18" fill="currentColor">
    <path d="M6.50865 3.19324H9V0H6.02076C2.76125 0.171067 1.59862 2.27138 2.07612 5.81626H0V9.15206H2.07612V18H6.02076V9.15206H8.97924V5.81626H6.01038C5.98962 4.81837 5.96886 3.52587 6.50865 3.19324Z"/>
  </symbol>
  <symbol id="icon-youtube" viewBox="0 0 15 13" fill="currentColor">
    <path d="M1.83356 12.8089C1.64633 12.9278 1.42471 12.9941 1.19626 12.9996C0.967817 13.0051 0.74263 12.9495 0.548717 12.8398C0.354804 12.7301 0.200724 12.571 0.105646 12.3824C0.010569 12.1938 -0.0213097 11.984 0.0139762 11.779V1.22097C-0.0213097 1.01605 0.010569 0.806234 0.105646 0.617628C0.200724 0.429021 0.354804 0.269949 0.548717 0.1602C0.74263 0.0504516 0.967817 -0.00512927 1.19626 0.000372265C1.42471 0.0058738 1.64633 0.0722149 1.83356 0.191142L14.2333 5.69284C15.2556 6.13817 15.2556 6.86183 14.2333 7.30716L1.83356 12.8089Z"/>
  </symbol>
  <symbol id="icon-copyright" viewBox="0 0 27 34" fill="currentColor">
    <path d="M13.6426 0.0157537L13.5 0L0 1.40733V26.0129L13.5 34L27 26.0129V1.40733L13.6426 0.0157537ZM25.2344 25.0151L13.5 31.9573L1.76561 25.0151V14.9293L13.4507 21.8451L13.4701 23.0984L5.45351 18.3548L5.44295 19.5801L13.4894 24.3885L13.5088 25.675L5.46408 20.9174L5.45351 22.1427L13.5 26.9511L21.6239 22.1182V20.8929V16.909L25.2432 14.7595L25.2344 25.0151ZM25.2344 13.4519L22.0147 15.3319L20.5325 16.2071L13.4666 12.0201L13.456 13.2454L19.4957 16.818L19.4429 16.8495L19.3126 16.9247L18.4536 17.4166L13.4666 14.4689L13.456 15.6942L17.3921 18.0222L16.4591 18.6314L16.438 18.6436L13.4666 16.902L13.456 18.1273L15.4029 19.2615L13.4155 20.4483L1.7973 13.5762L13.4349 6.61831L25.2344 13.4519ZM25.2344 12.2266L13.4401 5.31075L1.76561 12.2196V2.9897L13.5 1.76442L25.2344 2.9897V12.2266Z"/>
  </symbol>
</svg>
