<svg width="30" height="49" viewBox="0 0 30 49" fill="none" xmlns="http://www.w3.org/2000/svg">
<g opacity="0.3" filter="url(#filter0_d)">
<path d="M23.9587 20.4965L4.25167 39.5856C4.17194 39.6621 4.10864 39.7532 4.06544 39.8535C4.02224 39.9539 4 40.0616 4 40.1704C4 40.2791 4.02224 40.3868 4.06544 40.4872C4.10864 40.5876 4.17194 40.6786 4.25167 40.7551C4.33144 40.8327 4.42622 40.8943 4.53059 40.9363C4.63495 40.9784 4.74685 41 4.85985 41C4.97286 41 5.08475 40.9784 5.18911 40.9363C5.29348 40.8943 5.38826 40.8327 5.46803 40.7551L25.7475 21.0912C25.8275 21.0138 25.891 20.9219 25.9344 20.8207C25.9777 20.7195 26 20.611 26 20.5015C26 20.3919 25.9777 20.2834 25.9344 20.1822C25.891 20.081 25.8275 19.9891 25.7475 19.9117L5.46803 0.237877C5.30326 0.0842934 5.08329 -0.00102615 4.85474 7.62939e-06C4.6861 0.00154114 4.52166 0.0511971 4.38194 0.14278C4.24222 0.234364 4.13341 0.363811 4.06909 0.51498C4.00477 0.666149 3.98778 0.83234 4.02025 0.992809C4.05272 1.15328 4.13321 1.30093 4.25167 1.41732L23.9587 20.4965Z" fill="#283645"/>
</g>
<defs>
<filter id="filter0_d" x="0" y="0" width="30" height="49" filterUnits="userSpaceOnUse" color-interpolation-filters="sRGB">
<feFlood flood-opacity="0" result="BackgroundImageFix"/>
<feColorMatrix in="SourceAlpha" type="matrix" values="0 0 0 0 0 0 0 0 0 0 0 0 0 0 0 0 0 0 127 0"/>
<feOffset dy="4"/>
<feGaussianBlur stdDeviation="2"/>
<feColorMatrix type="matrix" values="0 0 0 0 0 0 0 0 0 0 0 0 0 0 0 0 0 0 0.25 0"/>
<feBlend mode="normal" in2="BackgroundImageFix" result="effect1_dropShadow"/>
<feBlend mode="normal" in="SourceGraphic" in2="effect1_dropShadow" result="shape"/>
</filter>
</defs>
</svg>
